<svg version="1.2" xmlns="http://www.w3.org/2000/svg" viewBox="0 0 1440 192" width="1440" height="192">
	<title>file</title>
	<style>
		.s0 { opacity: 1;fill: #f2cf2c } 
	</style>
	<path id="Path 0" class="s0" d="m0 79.5v79.5c5.4 0 9.6-0.7 12.8-1.5 3.1-0.9 9.7-3.4 14.7-5.6l9-4.1c7.8 2.5 10.6 3.2 11.3 3.2 0.6 0 3.3 1.3 5.9 3 2.7 1.6 7.3 3.5 10.3 4.2 3 0.7 9.5 1.2 14.5 1.2 5 0 13.8-0.2 19.6-0.4 10.3-0.5 10.9-0.6 15.5-4 4.5-3.2 5.5-3.5 11.4-3.4 3.6 0.1 8.5 0.2 11 0.3 2.5 0.1 8.6 1.5 13.5 3.1 4.9 1.7 10 3 11.2 3 1.3 0 3.5-1.1 5-2.4 2.6-2.2 3.4-2.4 10.8-1.8 6.1 0.4 9 0.1 12.2-1.1 2.6-1 7.1-1.7 11.3-1.7 3.8 0 10.3 0.5 14.2 1.1 4 0.6 8.9 1.8 10.8 2.6 2.8 1.2 5.5 1.4 13.5 0.8 9.3-0.7 10.2-0.6 13 1.4 1.7 1.2 5.5 2.5 8.5 3 3.9 0.6 7.2 0.4 11.5-0.6 3.3-0.7 6.4-1.4 7-1.4 0.6-0.1 5.3 0.9 10.5 2.1 6.3 1.4 10.7 1.9 13 1.4 1.9-0.4 5.1-0.6 7-0.5 1.9 0.1 9.1 1.8 16 3.8 11.1 3.1 13.3 3.5 19.5 2.8 5-0.5 8.7-0.2 13 0.9 4 1 8 1.3 12 0.9 4.1-0.4 9.1-2.1 16-5.4 6.4-3 12.7-5.2 17.5-6 4.5-0.8 16.4-1.3 30.1-1.3 15-0.1 23.1-0.5 24-1.2 0.8-0.6 3.2-1.4 5.4-1.7 3.1-0.5 4.5-0.2 6 1.2 1.1 1 4 2.6 6.5 3.5 2.5 0.8 11 2.7 19 4.1 8 1.4 16.7 3.4 19.5 4.5 2.7 1 6.6 2.6 8.5 3.6 1.9 0.9 8.7 2.9 15 4.4 6.3 1.5 13.7 3.1 16.5 3.5 3.4 0.4 6.6 0.2 10-0.8 3.6-1 7.9-1.3 15-0.9 7.9 0.4 10.9 1 14.5 2.8 3.2 1.7 6.1 2.4 10.2 2.4 3.3 0 8.3 0.9 11.5 2.1 3.2 1.1 7.8 2.7 10.3 3.4 2.5 0.8 9 2 14.5 2.7 5.5 0.6 19 1.2 30 1.1 11 0 26.3-0.4 34-0.8 13.7-0.8 14.1-0.9 17.5-4 2.8-2.4 5.6-3.5 14-5.4 5.8-1.3 16.4-2.8 23.5-3.3 7.1-0.5 14.4-1 16-1 1.6-0.1 6.5 0.3 10.7 1 4.3 0.7 13.5 1.2 20.5 1.2 11.4 0 13-0.2 15-2 2.2-1.9 3.5-2 30-1.9 17.3 0.1 30.5-0.3 34.8-1 4.6-0.8 11.9-1 21.5-0.5 11 0.5 16.5 1.2 23 3.1 6.7 2 10.9 2.6 20 2.7 11.4 0.1 11.6 0.1 16.5-3.2 2.8-1.8 5.9-3.2 7-3.2 1.1 0 3-0.7 4.2-1.5 2-1.3 4.7-1.4 21-0.4 10.4 0.6 21.3 0.9 24.3 0.6 3-0.2 7.7-1.4 10.5-2.6 3.1-1.4 6.8-4.2 9.5-7.3l4.5-5c18.5 1.9 27.3 2.2 34 1.7 6-0.3 12.8-1.1 15-1.6 2.2-0.6 7.2-1.9 11-3.1 3.8-1.1 10.4-3.4 14.5-5l7.5-3c12.8 5.1 18.6 6.6 22.5 7 4.8 0.4 9-0.1 16-1.8 5.2-1.2 11.2-2.6 13.2-3.1 2.3-0.5 4.5-1.9 5.5-3.5 1-1.4 3.1-4.2 4.8-6.1 2.2-2.6 3.8-3.6 6-3.5 1.7 0 5.5 1.2 8.5 2.8 4.3 2.2 7.3 2.8 14 3.2 5.8 0.3 9.8 1.1 12.5 2.5 2.2 1.1 5.8 3.2 7.9 4.6l4 2.6c52.5 0.1 53.4 0.2 68.1 3.3 8.3 1.7 17.9 3.2 21.5 3.2 5.2 0 7.2-0.4 10-2.3 1.9-1.2 4.6-4.2 6-6.6l2.5-4.3c15.1 1.2 19.8 1 23.5 0.2 4.3-1 7.5-1 15-0.1 5.2 0.7 16 2.5 24 4 8 1.6 16.9 3.2 19.8 3.5l5.2 0.6v-152h-1440z"/>
</svg>