<svg version="1.2" xmlns="http://www.w3.org/2000/svg" viewBox="0 0 1440 199" width="1440" height="199">
	<title>file</title>
	<style>
		.s0 { fill: #ffffff } 
	</style>
	<path id="Path 0" class="s0" d="m655 5c-4.7 0.4-10.5 1.3-13 2-2.5 0.6-7.5 2.2-11.3 3.6-3.7 1.3-8.8 2.4-11.4 2.4-3.1 0-7 0.9-10.8 2.6-5.8 2.6-6.4 2.7-17 1.9-6-0.4-14.1-0.7-18-0.8-4.5 0-11.1 1-18.5 2.8-6.3 1.5-13.1 3.6-15 4.5-1.9 1-6.4 2.7-10 3.8-3.6 1.2-12.8 3.3-20.5 4.7-9.4 1.7-16 3.5-20 5.4-5.8 2.9-6.1 2.9-10 1.4-3.2-1.3-7.8-1.5-23-1.4-13 0.1-22.2-0.3-29-1.3-8-1.2-12-2.5-19.9-6.3-9.5-4.6-10.3-4.8-18-4.7-4.5 0.1-14.4 0.6-22.1 1.2-10.3 0.7-16.2 1.7-22.5 3.7-6.9 2.2-10.3 2.7-17.8 2.6-5-0.1-12.5 0.6-16.4 1.5-5.8 1.2-8.3 1.3-12 0.5-2.7-0.6-7.2-1.1-10-1.1-3.6 0-7.1 0.9-10.8 2.6-5.1 2.4-6.2 2.5-14 1.9-7.1-0.6-9.6-0.3-15.5 1.5-3.9 1.2-11.4 2.4-17 2.7-8.3 0.6-10.9 0.3-15-1.2-3.7-1.3-6.8-1.7-12-1.3-5.5 0.3-7.7 0.1-10.2-1.4-1.8-1-5-1.8-7-1.8-2.1 0-7.6 1.1-12.3 2.5-6 1.8-11.3 2.6-18 2.8-9.3 0.2-9.6 0.1-14.9-3.3-4.9-3.2-6.1-3.5-13.5-3.7-4.5-0.1-11.7-0.5-16.1-0.9-6-0.5-10-0.2-16 1.1-4.4 0.9-10 2.8-12.5 4.1-2.5 1.4-7.2 3.3-10.5 4.3l-6 1.9c-13.9-6.1-20.5-8.5-23.5-9.2-3-0.8-8.4-1.7-12-2-3.6-0.3-10.2-1.5-14.7-2.6-4.6-1.1-9.9-2-11.8-2-2.8 0-3.5 0.4-3.5 2 0 1.1-0.4 2.2-1 2.5-0.7 0.3-1 28.8-1 82.5v82h1440c0-153.7-0.1-158-1.7-157.6-1 0.2-4.5 0.7-7.8 1.1-3.3 0.4-12.5 2-20.5 3.5-8 1.6-18.1 3.4-22.5 4-6 0.8-9.2 0.8-13-0.1-3.2-0.8-8.2-1-14.2-0.6-7 0.5-9.6 0.4-10.5-0.6-0.7-0.7-2-2.8-2.8-4.6-1-2.1-2.9-3.9-5.5-5.2-2.2-1-5.8-1.9-8-1.9-2.2 0-8.3 0.7-13.5 1.4-5.2 0.8-13.1 2.4-17.5 3.5-7.2 1.8-10.6 2-33.1 1.8l-25-0.2c-9.2 5.6-13.5 7.7-15.4 8.4-1.9 0.6-6 1.1-9 1.1-3.8 0-7.8 0.9-13 3.1-6.3 2.6-7.9 2.9-10.2 2-1.6-0.6-4-3.1-5.5-5.5-1.6-2.4-4.3-5.1-6-6-1.8-0.9-4.1-1.6-5-1.6-1 0-5.4-0.9-9.8-2.1-6.1-1.6-9.8-2-15.5-1.6-4.7 0.4-9.8 1.5-13.7 3.1-3.5 1.4-7.3 2.6-8.5 2.6-1.3 0-4.1-0.9-6.3-1.9-2.2-1-9-3.3-15-5.2l-11-3.3-47.6-0.1c-6.2-6.7-10.4-9.6-13.6-11-5.3-2.3-7-2.5-18.8-2.4-7.1 0-16.8 0.4-21.5 0.8-7.3 0.6-9.4 0.4-15-1.5-3.6-1.2-8.1-3.1-10-4.3-2.5-1.5-5.8-2.3-11.5-2.7-5.4-0.4-10.8-0.1-16.5 1-4.7 0.8-10.7 2.2-13.5 3-2.8 0.8-10.9 1.5-18.5 1.7-7.4 0.1-20-0.3-28-1-9.3-0.8-20.6-1-31.5-0.5-16.6 0.7-17.1 0.6-21.5-1.7-4.1-2.2-5.6-2.4-17.5-2.2-7.1 0.1-15.9 0.6-19.5 1.2-4.4 0.7-11.3 0.8-21.5 0.1-8.2-0.5-19.2-1.8-24.2-3-5.1-1.1-10.5-2.7-12-3.5-1.6-0.8-3.9-2.4-5.3-3.5-2.4-1.9-4.4-2-36-2.4-18.4-0.3-37.3-0.1-42 0.4z"/>
</svg>